<svg xmlns="http://www.w3.org/2000/svg" xmlns:xlink="http://www.w3.org/1999/xlink" preserveAspectRatio="xMidYMid" width="87" height="43" viewBox="0 0 87 43">
  <defs>
    <style>
      .cls-1 {
        fill: #1b1915;
        fill-rule: evenodd;
      }
    </style>
  </defs>
  <path d="M86.638,24.712 C85.466,33.424 81.949,41.896 81.949,41.896 C81.949,41.896 80.307,44.378 75.385,41.896 C69.570,38.965 66.241,36.884 62.256,35.214 C58.270,33.543 54.753,31.992 52.878,29.486 C51.002,26.980 51.002,28.531 51.002,28.531 C51.002,28.531 50.299,28.650 48.189,28.531 C46.079,28.412 43.500,28.531 43.500,28.531 C43.500,28.531 40.921,28.412 38.811,28.531 C36.701,28.650 35.998,28.531 35.998,28.531 C35.998,28.531 35.998,26.980 34.122,29.486 C32.247,31.992 28.730,33.543 24.744,35.214 C20.759,36.884 17.430,38.965 11.615,41.896 C6.692,44.378 5.051,41.896 5.051,41.896 C5.051,41.896 1.534,33.424 0.362,24.712 C-0.810,16.001 1.065,7.529 3.175,2.755 C5.285,-2.018 10.678,0.846 10.678,0.846 C10.678,0.846 19.587,3.471 24.744,5.619 C29.902,7.767 34.122,12.302 34.122,12.302 C34.122,12.302 34.357,12.540 35.998,11.347 C37.639,10.154 38.811,10.392 38.811,10.392 L43.500,10.392 L48.189,10.392 C48.189,10.392 49.361,10.154 51.002,11.347 C52.643,12.540 52.878,12.302 52.878,12.302 C52.878,12.302 57.098,7.767 62.256,5.619 C67.413,3.471 76.322,0.846 76.322,0.846 C76.322,0.846 81.715,-2.018 83.825,2.755 C85.935,7.529 87.810,16.001 86.638,24.712 Z" class="cls-1"/>
</svg>
