<?xml version="1.0" encoding="iso-8859-1"?>
<!-- Generator: Adobe Illustrator 17.1.0, SVG Export Plug-In . SVG Version: 6.00 Build 0)  -->
<!DOCTYPE svg PUBLIC "-//W3C//DTD SVG 1.1//EN" "http://www.w3.org/Graphics/SVG/1.1/DTD/svg11.dtd">
<svg version="1.1" id="Capa_1" xmlns="http://www.w3.org/2000/svg" xmlns:xlink="http://www.w3.org/1999/xlink" x="0px" y="0px"
	 viewBox="0 0 192.887 192.887" style="enable-background:new 0 0 192.887 192.887;" xml:space="preserve">
<path fill="white" d="M178.01,41.616l-54.66-38.253C120.206,1.163,116.55,0,112.777,0c-10.223,0-18.539,8.309-18.539,18.522
	c0,6.034,2.951,11.701,7.895,15.159l4.373,3.061H83.374c-43.05,0-78.073,35.023-78.073,78.073c0,43.049,35.023,78.073,78.073,78.073
	h55.572c12.406,0,22.5-10.093,22.5-22.5s-10.094-22.5-22.5-22.5H83.374c-18.236,0-33.073-14.836-33.073-33.073
	c0-18.236,14.837-33.073,33.073-33.073h25.317l-6.558,4.589c-4.943,3.459-7.895,9.126-7.895,15.16
	c0,10.212,8.316,18.521,18.538,18.522c0.001,0,0.001,0,0.002,0c3.772,0,7.428-1.163,10.57-3.362l54.661-38.253
	c5.997-4.197,9.577-11.072,9.577-18.391C187.587,52.687,184.007,45.812,178.01,41.616z"/>
<g>
</g>
<g>
</g>
<g>
</g>
<g>
</g>
<g>
</g>
<g>
</g>
<g>
</g>
<g>
</g>
<g>
</g>
<g>
</g>
<g>
</g>
<g>
</g>
<g>
</g>
<g>
</g>
<g>
</g>
</svg>
