<svg id="svg2" xmlns="http://www.w3.org/2000/svg" width="78.59" height="77.36" viewBox="0 0 78.59 77.36"><title>violin1</title><path id="path4" d="M25.12,30.87,29,37.6l-1.93,1.09L23.21,32ZM27.28,39l.34.58,1.93-1.1-.33-.56Zm.51.87.36.61,1.92-1.11-.35-.6ZM66.94,13.15c.77-.44,1.06-.86.69-1.51s-1.28-1.28-2-.84a1.64,1.64,0,0,0-.31,2.2C65.65,13.65,66.18,13.59,66.94,13.15Zm3.79,0,.83-.43-.62-1.07-.81.47Zm-.47-1.76c.77-.44,1.07-.86.69-1.51S69.68,8.56,68.91,9a1.64,1.64,0,0,0-.31,2.2C69,11.86,69.5,11.8,70.27,11.35Zm5.2-2.22-1.29.63.42.73,1.29-.63ZM28.31,40.76l.35.61,1.92-1.12-.35-.6Zm6.34,6.47-3.9-6.69-1.92,1.12,3.88,6.66ZM67.39,14.87l.83-.43-.6-1-.81.47ZM4.46,57.28l.33-.19c-.15-.35-.33-.73-.51-1.13l-.33-.7,0-.07A8.28,8.28,0,0,1,3.16,53l0-.19h0a1.81,1.81,0,0,1,.51-1.56C4.93,50.09,8.87,46,6.6,42a9.8,9.8,0,0,0-4.27-3.57c-.49.46-2.73,3.48-2.28,8.47a20.22,20.22,0,0,0,2.77,7.86h0A27.9,27.9,0,0,0,4.46,57.28Zm27.28-21-.08-.15L65.76,16.9l.17.3L31.83,36.42l.49.85L32.15,37l34-19.4.17.3-34,19.4.34.59L66.53,18.25l.17.29L32.83,38.15l.34.59L66.89,18.87l.17.29L33.34,39l-.17-.29.48.82L67.73,19.2l-1.72-3L31.33,35.56ZM66.5,15.94l7.41-3.81,1.37,2.38-7.07,4.4ZM70.67,17l-.17-.29L68.35,18l.17.29ZM73.9,14,68,17.4l.17.29,5.9-3.42Zm-2,.27-4.33,2.47.17.3,4.32-2.47Zm-4.54,2.11,1-.59-.17-.3-1,.59Zm7.32-.79-.79.51.6,1,.81-.47Zm.56,1.88c-.77.44-1.08.87-.71,1.52s1.3,1.27,2.06.83.67-1.54.3-2.19S76,17,75.27,17.45ZM9.63,52a10.64,10.64,0,0,1,3.13-.7,11.47,11.47,0,0,0,2-.34L12,46.19a11.83,11.83,0,0,0-1.26,1.47,11.26,11.26,0,0,1-2.32,2.43c-1.2.9-3.66,2.46-4.62,3a7.93,7.93,0,0,0,.52,1.55C5.24,54.18,8.37,52.55,9.63,52ZM77,14.61l.42.73,1.19-.8-.42-.73Zm-.28-4.42-2.41,1.16,1.8,3.11L78.32,13ZM32.28,48.57l-.84.47c-5.6,3.23-2.79,7.37-2.61,7.67a3.45,3.45,0,0,0-1.85.76c-4.37,6.23-14.81,9.88-22.39.4l.91-.53-.09-.23c-.17-.44-.39-.9-.62-1.39l-.25-.54c.89-.47,4.08-2.13,5.31-2.64a10,10,0,0,1,3-.66A12,12,0,0,0,15,51.51l.59-.18-3.48-6-.47.43a11.85,11.85,0,0,0-1.38,1.59,10.7,10.7,0,0,1-2.21,2.32c-1.11.83-3.28,2.22-4.34,2.86a1.15,1.15,0,0,1,.33-.82c1.34-1.25,5.52-5.65,3-9.94a10.44,10.44,0,0,0-4.63-3.85.32.32,0,0,0-.15,0,14.76,14.76,0,0,1,10.17-5.48,3.5,3.5,0,0,0,1.58-1.22c.17.3,2.35,4.8,7.95,1.57l.77-.46,3.89,6.68L22,41.58l.17.3,4.69-2.65.34.58-4.67,2.68.17.3,4.67-2.68.36.62L23,43.42l.17.29L27.88,41l.35.61-4.65,2.72.17.29,4.65-2.72ZM13.72,37.49c.84,1.46,2.88,1.93,5.48.43,3.22-1.86,4.08-2.63,4.62-1.69a.53.53,0,0,1,0,.67.49.49,0,1,0-.15.68.52.52,0,0,0,.14-.12A1,1,0,0,0,24.21,36c-.86-1.49-2.83-.51-5.51,1-2.39,1.38-3.89,1.45-4.6.22a1,1,0,0,1,.28-1.35.53.53,0,1,0,.2-.71.62.62,0,0,0-.16.14A1.55,1.55,0,0,0,13.72,37.49Zm6.27,4,2.82,4.89,1-.56L21,40.94Zm.73,2.4-.17-.3-6.32,3.62.17.29ZM14.79,48.2l.17.29,6.31-3.65-.17-.29Zm-.94-1.63L20.19,43,20,42.7l-6.35,3.58Zm1.68,2.9,6.28-3.7-.17-.29-6.28,3.71Zm14.16-4a1,1,0,0,0-1.45-.4.51.51,0,0,0-.19.06.45.45,0,1,0,.67.21c.27,0,.44.09.58.34.54.94-.56,1.3-3.78,3.15-2.6,1.51-3.22,3.5-2.37,5a1.55,1.55,0,0,0,2.21.47.57.57,0,0,0,.2-.07.49.49,0,1,0-.72-.19,1,1,0,0,1-1.31-.43c-.71-1.23.11-2.49,2.49-3.87C28.71,48.2,30.55,47,29.69,45.5ZM34,40.11l-.49.28-2.94-5.1L31,35h0l14.87-8.25c-5.39-7.73-11-7.12-16-2.95a3,3,0,0,1-1.67.52S29.89,27.21,26.5,30l-.45.35-.07,0,3.93,6.75,1.24-.7.17.3-1.24.7.33.56,1.24-.71.17.29-1.23.71.35.6,1.23-.71.17.29-1.23.71.35.59L32.67,39l.17.29L31.61,40l3.91,6.71h0l.53-.21c4.08-1.56,5.75,1.28,5.75,1.28a3.07,3.07,0,0,1,1.28-1.18c6.08-2.18,9.42-6.76,5.44-15.28L34,40.11ZM71.52,17.58l-.79.51.58,1,.81-.47Zm.54,1.85c-.77.44-1.08.87-.71,1.52s1.29,1.27,2.06.83.67-1.54.3-2.19S72.82,19,72.06,19.43Z" style="fill:#1b1915"/><path id="path6" d="M53.11,77.36l1.33-.77L10.22,0A11.1,11.1,0,0,1,5.08,1.16l2,3.4.24-.14L43.45,67.07l-.93.54,4.31,7.46,3.71-2.16-4.31-7.46-2,1.19L8,4l2-1.18Zm-7.26-7.44a.65.65,0,1,1-.24.89A.66.66,0,0,1,45.85,69.92Z" style="fill:#1b1915"/></svg>