<svg id="Layer_1" data-name="Layer 1" xmlns="http://www.w3.org/2000/svg" width="133.65" height="71.18" viewBox="0 0 133.65 71.18"><title>cap1</title><path id="path4" d="M133.6,70.8c-1.3-4.4-15.2-10.7-15.6-12.2s.1-12.4-2.1-18.6S109.4,24.5,103,20.9A84.09,84.09,0,0,0,85.5,8.6c3.8-.4,1.7-4.2-2.5-5.4-4.8-1.5-7.4,3-10.4.8S62.8-.9,60.5,2.4C59.4,4,62,4.8,64.9,5.2,59.1,6.3,50,8.2,46.7,10,34.6,15.6,24.8,23.4,24,24.6,21.6,28,19,32.9,14.9,45,14.9,45,1.8,55.6.4,58s1.6,5.6,5,6,9.5-1,11.5-2.9c1-.7,2.9-2.7.3-2.2s-24.3-.2-9.4-.3,35.3-8.8,41-10.1c2.9-.6,8.5.8,19.6,2a143.81,143.81,0,0,1,25.5,5.1,29.52,29.52,0,0,0,6.2.9l-1.3-.1S97.5,26.6,89,14.1c0,0,7.9,5.3,12.5,42.8.7.1,1.5.1,1.8.6.8,1.6,7.2,4.3,11.9,6.3,5.3,2.3,8.7,4.3,13.3,6.6C132.7,72.3,134.1,72.7,133.6,70.8ZM83.4,6c1.1,1,.5,1.3-.9,1.3-1.4-.6-2.3-.9-2.4-1h0A18.94,18.94,0,0,0,78,5.4C79.7,5.1,82,4.8,83.4,6Zm-14-.7Zm-6-1.9c-.4-1.2,2.2-1.4,6,1-.5.1-1.5.2-2.8.5C65,4.5,63.6,4,63.4,3.4ZM51,48H48.7S47.5,9.8,68.5,5.4h.2C65.4,6.5,52.4,12.8,51,48Z" transform="translate(-0.05 -0.86)" style="fill:#1c1a16"/></svg>