<svg xmlns="http://www.w3.org/2000/svg" xmlns:xlink="http://www.w3.org/1999/xlink" preserveAspectRatio="xMidYMid" width="172.94" height="59" viewBox="0 0 172.94 59">
  <defs>
    <style>
      .cls-1 {
        fill: #1b1915;
        fill-rule: evenodd;
      }
    </style>
  </defs>
  <path d="M172.947,4.962 C172.700,7.171 172.206,11.834 172.206,11.834 L171.958,12.815 C171.958,12.815 164.546,14.124 162.817,21.405 C161.087,28.686 159.193,43.411 155.899,48.156 C152.604,52.900 144.698,60.590 124.520,58.709 C104.342,56.827 100.142,44.147 99.071,40.793 C98.000,37.439 95.777,27.868 93.882,24.841 C92.018,21.862 88.960,20.476 86.470,20.432 C83.980,20.476 80.922,21.862 79.058,24.841 C77.163,27.868 74.940,37.439 73.869,40.793 C72.798,44.147 68.598,56.827 48.420,58.709 C28.242,60.590 20.336,52.900 17.041,48.156 C13.747,43.411 11.853,28.686 10.123,21.405 C8.394,14.124 0.981,12.815 0.981,12.815 L0.734,11.834 C0.734,11.834 0.240,7.171 -0.007,4.962 C-0.254,2.753 1.723,2.999 1.723,2.999 C1.723,2.999 4.193,2.344 8.394,1.772 C12.594,1.199 32.854,-1.419 51.879,1.035 C70.904,3.490 78.811,7.171 81.775,8.398 C84.131,9.373 85.766,9.417 86.346,9.395 L86.346,9.380 C86.346,9.380 86.395,9.384 86.470,9.389 C86.545,9.384 86.593,9.380 86.593,9.380 L86.593,9.395 C87.174,9.417 88.809,9.373 91.164,8.398 C94.129,7.171 102.036,3.490 121.061,1.035 C140.086,-1.419 160.346,1.199 164.546,1.772 C168.746,2.344 171.217,2.999 171.217,2.999 C171.217,2.999 173.194,2.753 172.947,4.962 ZM71.892,19.442 C71.316,15.515 70.384,7.252 45.949,6.189 C45.949,6.189 38.455,5.780 31.619,6.189 C24.783,6.598 15.725,9.105 15.806,19.687 C15.890,30.584 18.441,43.002 24.701,47.665 C30.960,52.328 36.273,53.676 48.914,52.819 C62.592,51.891 67.527,43.329 69.916,37.603 C72.304,31.876 72.469,23.368 71.892,19.442 ZM141.321,6.189 C134.485,5.780 126.991,6.189 126.991,6.189 C102.556,7.252 101.624,15.515 101.047,19.442 C100.471,23.368 100.636,31.876 103.024,37.603 C105.412,43.329 110.348,51.891 124.026,52.819 C136.666,53.676 141.980,52.328 148.239,47.665 C154.498,43.002 157.050,30.584 157.134,19.687 C157.215,9.105 148.157,6.598 141.321,6.189 Z" class="cls-1"/>
</svg>
