<svg xmlns="http://www.w3.org/2000/svg" xmlns:xlink="http://www.w3.org/1999/xlink" preserveAspectRatio="xMidYMid" width="118" height="88" viewBox="0 0 118 88">
  <defs>
    <style>
      .cls-1 {
        fill: #1b1915;
        fill-rule: evenodd;
      }
    </style>
  </defs>
  <path d="M113.627,77.967 C106.085,84.334 91.398,88.513 59.001,87.956 C26.604,88.513 11.917,84.334 4.376,77.967 C-2.290,72.340 -0.062,63.339 2.709,59.983 C5.480,56.628 10.099,54.390 11.947,56.068 C13.794,57.746 13.102,58.082 13.102,62.220 C13.102,66.359 14.834,62.780 14.834,62.780 C14.834,62.780 14.652,61.288 15.411,37.053 C16.488,-1.538 53.943,-0.256 59.001,0.094 C64.059,-0.256 101.515,-1.538 102.592,37.053 C103.351,61.288 103.169,62.780 103.169,62.780 C103.169,62.780 104.901,66.359 104.901,62.220 C104.901,58.082 104.208,57.746 106.056,56.068 C107.903,54.390 112.522,56.628 115.294,59.983 C118.065,63.339 120.293,72.340 113.627,77.967 Z" class="cls-1"/>
</svg>
