<svg xmlns="http://www.w3.org/2000/svg" xmlns:xlink="http://www.w3.org/1999/xlink" preserveAspectRatio="xMidYMid" width="62.72" height="130.438" viewBox="0 0 62.72 130.438">
  <defs>
    <style>
      .cls-1 {
        fill: #1b1915;
        fill-rule: evenodd;
      }
    </style>
  </defs>
  <path d="M35.061,62.003 C35.101,62.886 35.148,63.895 35.202,65.040 C35.204,65.088 35.206,65.134 35.208,65.183 C35.225,65.534 35.242,65.900 35.260,66.277 C35.265,66.389 35.271,66.506 35.276,66.621 C35.331,67.779 35.392,69.061 35.460,70.478 C35.469,70.674 35.479,70.874 35.488,71.076 C35.510,71.521 35.531,71.969 35.554,72.440 C35.577,72.498 35.606,72.554 35.635,72.610 C35.652,72.642 35.669,72.674 35.688,72.705 C35.714,72.747 35.743,72.787 35.773,72.826 C35.808,72.869 35.847,72.909 35.888,72.947 C35.914,72.972 35.939,72.998 35.969,73.020 C36.046,73.077 36.130,73.126 36.228,73.158 C37.086,73.434 37.372,74.482 37.372,74.482 C37.372,74.482 37.086,75.530 36.228,75.806 C36.122,75.841 36.028,75.892 35.946,75.956 C35.865,76.020 35.795,76.095 35.735,76.179 C35.735,76.179 35.735,76.179 35.735,76.179 C35.820,77.933 35.913,79.843 36.014,81.908 C36.025,82.133 36.036,82.359 36.047,82.588 C36.140,84.485 36.241,86.521 36.348,88.695 C36.375,89.239 36.402,89.793 36.430,90.355 C36.457,90.905 36.484,91.450 36.512,92.017 C36.563,93.054 36.616,94.123 36.671,95.220 C36.695,95.711 36.721,96.218 36.746,96.722 C36.791,97.646 36.838,98.590 36.887,99.555 C36.906,99.952 36.925,100.337 36.946,100.741 C37.011,102.063 37.080,103.432 37.150,104.834 C37.171,105.265 37.193,105.705 37.215,106.144 C37.282,107.476 37.350,108.837 37.420,110.240 C37.431,110.448 37.441,110.647 37.451,110.857 C37.531,112.456 37.615,114.115 37.700,115.808 C37.721,116.230 37.742,116.656 37.764,117.084 C37.852,118.838 37.942,120.623 38.035,122.479 C38.229,126.316 36.129,126.451 36.129,126.451 C36.129,126.451 36.383,126.451 35.493,128.438 C35.433,128.572 35.361,128.696 35.281,128.812 C35.254,128.852 35.222,128.886 35.194,128.923 C35.136,128.998 35.078,129.070 35.014,129.137 C34.976,129.177 34.936,129.213 34.896,129.249 C34.833,129.308 34.770,129.364 34.702,129.417 C34.658,129.451 34.614,129.483 34.569,129.515 C34.498,129.564 34.427,129.611 34.353,129.655 C34.308,129.682 34.263,129.709 34.217,129.734 C34.135,129.779 34.053,129.819 33.969,129.858 C33.929,129.877 33.890,129.896 33.849,129.914 C33.744,129.959 33.637,130.000 33.530,130.038 C33.512,130.044 33.494,130.052 33.475,130.058 C33.209,130.149 32.945,130.217 32.697,130.269 C32.697,130.269 32.697,130.269 32.697,130.269 L32.697,130.424 C32.697,130.424 32.428,130.422 32.030,130.376 C32.030,130.376 32.030,130.376 32.030,130.376 C31.632,130.422 31.362,130.424 31.362,130.424 L31.362,130.269 C30.360,130.062 29.077,129.577 28.566,128.438 C27.676,126.451 27.931,126.451 27.931,126.451 C27.931,126.451 25.831,126.316 26.024,122.479 C26.118,120.623 26.207,118.838 26.296,117.083 C26.317,116.656 26.339,116.230 26.360,115.808 C26.445,114.115 26.528,112.456 26.608,110.858 C26.619,110.647 26.629,110.447 26.639,110.237 C26.710,108.835 26.778,107.476 26.844,106.145 C26.866,105.706 26.888,105.265 26.910,104.834 C26.980,103.433 27.048,102.064 27.114,100.742 C27.134,100.337 27.153,99.950 27.173,99.553 C27.221,98.588 27.268,97.645 27.314,96.723 C27.339,96.219 27.364,95.712 27.389,95.220 C27.443,94.123 27.496,93.054 27.547,92.017 C27.576,91.450 27.602,90.905 27.630,90.355 C27.657,89.793 27.685,89.239 27.712,88.695 C27.819,86.521 27.919,84.484 28.012,82.587 C28.023,82.359 28.034,82.133 28.045,81.908 C28.147,79.844 28.240,77.933 28.325,76.179 C28.325,76.179 28.325,76.179 28.325,76.179 C28.325,76.179 28.325,76.179 28.325,76.179 C28.265,76.095 28.195,76.020 28.113,75.956 C28.031,75.892 27.938,75.841 27.831,75.806 C26.973,75.530 26.687,74.482 26.687,74.482 C26.687,74.482 26.973,73.434 27.831,73.158 C27.929,73.126 28.014,73.077 28.091,73.020 C28.120,72.998 28.145,72.972 28.172,72.947 C28.213,72.909 28.252,72.869 28.287,72.826 C28.317,72.787 28.345,72.747 28.371,72.705 C28.390,72.674 28.408,72.642 28.425,72.610 C28.454,72.554 28.483,72.498 28.506,72.440 C28.528,71.979 28.549,71.539 28.570,71.103 C28.580,70.895 28.590,70.690 28.599,70.487 C28.665,69.116 28.724,67.870 28.778,66.740 C28.785,66.595 28.792,66.450 28.798,66.310 C28.815,65.953 28.831,65.602 28.847,65.269 C28.849,65.238 28.850,65.211 28.851,65.181 C28.884,64.483 28.914,63.838 28.942,63.239 C28.945,63.164 28.949,63.088 28.952,63.014 C28.966,62.710 28.980,62.415 28.993,62.135 C28.993,62.135 28.993,62.135 28.993,62.135 C12.780,60.932 -0.000,47.509 -0.000,31.116 C-0.000,13.931 14.041,-0.000 31.362,-0.000 C48.684,-0.000 62.725,13.931 62.725,31.116 C62.725,47.058 50.637,60.186 35.061,62.003 ZM31.362,7.770 C18.372,7.770 7.841,18.222 7.841,31.116 C7.841,44.010 18.372,54.462 31.362,54.462 C44.353,54.462 54.884,44.010 54.884,31.116 C54.884,18.222 44.353,7.770 31.362,7.770 Z" class="cls-1"/>
</svg>
