<svg xmlns="http://www.w3.org/2000/svg" xmlns:xlink="http://www.w3.org/1999/xlink" preserveAspectRatio="xMidYMid" width="72.66" height="131.187" viewBox="0 0 72.66 131.187">
  <defs>
    <style>
      .cls-1 {
        fill: #1b1915;
        fill-rule: evenodd;
      }
    </style>
  </defs>
  <path d="M72.660,124.918 C72.660,128.380 69.840,131.187 66.361,131.187 C62.882,131.187 60.062,128.380 60.062,124.918 C60.062,122.680 61.245,120.721 63.019,119.612 L62.971,119.612 L62.971,39.604 C59.486,53.426 46.927,63.663 31.963,63.663 C14.305,63.663 -0.009,49.412 -0.009,31.832 C-0.009,14.252 14.305,0.001 31.963,0.001 C39.871,0.001 47.102,2.865 52.684,7.600 C72.515,20.557 69.753,44.372 69.753,44.372 L69.753,119.612 L69.703,119.612 C71.477,120.721 72.660,122.680 72.660,124.918 ZM31.963,7.628 C18.530,7.628 7.640,18.464 7.640,31.832 C7.640,45.199 18.530,56.036 31.963,56.036 C45.396,56.036 56.285,45.199 56.285,31.832 C56.285,18.464 45.396,7.628 31.963,7.628 Z" class="cls-1"/>
</svg>
