<svg xmlns="http://www.w3.org/2000/svg" xmlns:xlink="http://www.w3.org/1999/xlink" preserveAspectRatio="xMidYMid" width="140" height="41" viewBox="0 0 140 41">
  <defs>
    <style>
      .cls-1 {
        fill: #1b1915;
        fill-rule: evenodd;
      }
    </style>
  </defs>
  <path d="M135.628,30.961 C130.223,37.403 120.003,41.338 110.972,40.976 C100.755,40.566 91.631,36.312 84.141,28.649 C79.184,23.579 74.910,23.553 70.000,22.897 C65.090,23.553 60.815,23.579 55.859,28.649 C48.368,36.312 39.245,40.566 29.028,40.976 C19.997,41.338 9.776,37.403 4.372,30.961 C-3.170,21.970 -0.084,6.480 6.794,2.805 C12.193,-0.078 18.547,1.290 20.326,5.537 C21.765,8.975 21.522,11.677 21.522,11.677 C21.513,11.376 19.601,8.619 19.601,8.619 C19.601,8.619 16.894,4.747 12.573,5.783 C8.252,6.820 5.819,13.263 9.839,17.769 C15.878,24.538 26.911,19.168 32.788,14.868 C38.665,10.569 45.507,1.932 55.231,0.343 C61.672,-0.709 67.021,0.788 70.000,4.679 C72.979,0.788 78.328,-0.709 84.769,0.343 C94.492,1.932 101.335,10.569 107.212,14.868 C113.089,19.168 124.122,24.538 130.161,17.769 C134.181,13.263 131.748,6.820 127.427,5.783 C123.106,4.747 120.399,8.619 120.399,8.619 C120.399,8.619 118.487,11.376 118.478,11.677 C118.478,11.677 118.235,8.975 119.674,5.537 C121.453,1.290 127.807,-0.078 133.205,2.805 C140.084,6.480 143.170,21.970 135.628,30.961 Z" class="cls-1"/>
</svg>
