<svg xmlns="http://www.w3.org/2000/svg" xmlns:xlink="http://www.w3.org/1999/xlink" preserveAspectRatio="xMidYMid" width="137" height="72.031" viewBox="0 0 137 72.031">
  <defs>
    <style>
      .cls-1 {
        fill: #1b1915;
        fill-rule: evenodd;
      }
    </style>
  </defs>
  <path d="M132.985,9.038 C131.045,8.947 130.978,8.627 130.978,8.627 L130.978,7.532 C130.978,7.532 115.296,7.030 111.407,9.038 C107.517,11.047 97.230,20.336 87.319,33.893 C84.950,37.134 82.461,40.797 79.803,44.533 C79.793,44.771 79.818,45.010 79.935,45.241 C80.552,46.449 79.733,47.878 79.733,47.878 C79.733,47.878 78.392,48.637 77.209,48.122 C69.247,58.866 59.623,69.350 46.670,71.553 C32.096,74.031 17.690,66.155 10.538,48.957 C3.387,31.759 2.258,20.336 2.258,20.336 C2.258,20.336 0.502,20.210 -0.000,16.570 C-0.502,12.930 10.287,9.038 24.841,9.038 C39.394,9.038 50.183,12.930 49.681,16.570 C49.179,20.210 47.423,20.336 47.423,20.336 C47.423,20.336 41.831,33.921 42.907,41.425 C43.812,47.741 47.974,49.597 51.940,48.957 C56.822,48.169 61.237,43.640 65.134,39.270 C65.203,38.938 65.196,38.593 65.029,38.266 C64.413,37.057 65.232,35.629 65.232,35.629 C65.232,35.629 66.660,34.809 67.868,35.426 C68.051,35.519 68.241,35.553 68.431,35.563 C68.968,34.973 69.493,34.411 70.005,33.893 C73.878,29.981 91.950,8.649 103.879,3.766 C110.132,1.206 130.978,1.506 130.978,1.506 L130.978,0.411 C130.978,0.411 131.045,0.091 132.985,0.000 C134.926,-0.091 137.000,1.872 137.000,4.519 C137.000,7.167 134.926,9.130 132.985,9.038 Z" class="cls-1"/>
</svg>
